REM DIRINDEX 1\2,1\3,1\4,1\5,1\6
REM DIRNAME cjc030,folder01,folder02,folder03,folder04,folder05
TITLE ""
FILE "Disc4Track08.mp3" MP3
  TRACK 01 AUDIO
    TITLE "3:cjc030_06359"
    INDEX 01 00:00:00
  TRACK 02 AUDIO
    TITLE "0:"
    INDEX 01 00:01:22
  TRACK 03 AUDIO
    TITLE "4:cjc030_06360"
    INDEX 01 00:01:32
  TRACK 04 AUDIO
    TITLE "0:"
    INDEX 01 00:02:28
  TRACK 05 AUDIO
    TITLE "5:cjc030_06361"
    INDEX 01 00:02:36
  TRACK 06 AUDIO
    TITLE "0:"
    INDEX 01 00:03:57
  TRACK 07 AUDIO
    TITLE "3:cjc030_06362"
    INDEX 01 00:04:42
  TRACK 08 AUDIO
    TITLE "0:"
    INDEX 01 00:06:08
  TRACK 09 AUDIO
    TITLE "4:cjc030_06363"
    INDEX 01 00:06:16
  TRACK 10 AUDIO
    TITLE "0:"
    INDEX 01 00:08:26
  TRACK 11 AUDIO
    TITLE "5:cjc030_06364"
    INDEX 01 00:08:34
  TRACK 12 AUDIO
    TITLE "0:"
    INDEX 01 00:09:73
  TRACK 13 AUDIO
    TITLE "6:cjc030_06365"
    INDEX 01 00:10:12
  TRACK 14 AUDIO
    TITLE "0:"
    INDEX 01 00:14:43
  TRACK 15 AUDIO
    TITLE "3:cjc030_06366"
    INDEX 01 00:15:17
  TRACK 16 AUDIO
    TITLE "0:"
    INDEX 01 00:16:46
  TRACK 17 AUDIO
    TITLE "4:cjc030_06367"
    INDEX 01 00:16:55
  TRACK 18 AUDIO
    TITLE "0:"
    INDEX 01 00:17:74
  TRACK 19 AUDIO
    TITLE "5:cjc030_06368"
    INDEX 01 00:18:09
  TRACK 20 AUDIO
    TITLE "0:"
    INDEX 01 00:19:40
  TRACK 21 AUDIO
    TITLE "3:cjc030_06369"
    INDEX 01 00:20:22
  TRACK 22 AUDIO
    TITLE "0:"
    INDEX 01 00:21:21
  TRACK 23 AUDIO
    TITLE "4:cjc030_06370"
    INDEX 01 00:21:29
  TRACK 24 AUDIO
    TITLE "0:"
    INDEX 01 00:24:33
  TRACK 25 AUDIO
    TITLE "5:cjc030_06371"
    INDEX 01 00:24:43
  TRACK 26 AUDIO
    TITLE "0:"
    INDEX 01 00:25:39
  TRACK 27 AUDIO
    TITLE "6:cjc030_06372"
    INDEX 01 00:25:52
  TRACK 28 AUDIO
    TITLE "0:"
    INDEX 01 00:28:19
  TRACK 29 AUDIO
    TITLE "3:cjc030_06373"
    INDEX 01 00:28:68
  TRACK 30 AUDIO
    TITLE "0:"
    INDEX 01 00:30:06
  TRACK 31 AUDIO
    TITLE "4:cjc030_06374"
    INDEX 01 00:30:16
  TRACK 32 AUDIO
    TITLE "0:"
    INDEX 01 00:31:59
  TRACK 33 AUDIO
    TITLE "5:cjc030_06375"
    INDEX 01 00:31:65
  TRACK 34 AUDIO
    TITLE "0:"
    INDEX 01 00:33:05
  TRACK 35 AUDIO
    TITLE "6:cjc030_06376"
    INDEX 01 00:33:19
  TRACK 36 AUDIO
    TITLE "0:"
    INDEX 01 00:35:08
  TRACK 37 AUDIO
    TITLE "3:cjc030_06377"
    INDEX 01 00:35:59
  TRACK 38 AUDIO
    TITLE "0:"
    INDEX 01 00:37:26
  TRACK 39 AUDIO
    TITLE "4:cjc030_06378"
    INDEX 01 00:37:34
  TRACK 40 AUDIO
    TITLE "0:"
    INDEX 01 00:38:63
  TRACK 41 AUDIO
    TITLE "5:cjc030_06379"
    INDEX 01 00:38:69
  TRACK 42 AUDIO
    TITLE "0:"
    INDEX 01 00:40:38
  TRACK 43 AUDIO
    TITLE "6:cjc030_06380"
    INDEX 01 00:40:50
  TRACK 44 AUDIO
    TITLE "0:"
    INDEX 01 00:45:06
  TRACK 45 AUDIO
    TITLE "3:cjc030_06381"
    INDEX 01 00:45:55
  TRACK 46 AUDIO
    TITLE "0:"
    INDEX 01 00:46:60
  TRACK 47 AUDIO
    TITLE "4:cjc030_06382"
    INDEX 01 00:46:68
  TRACK 48 AUDIO
    TITLE "0:"
    INDEX 01 00:49:51
  TRACK 49 AUDIO
    TITLE "5:cjc030_06383"
    INDEX 01 00:49:57
  TRACK 50 AUDIO
    TITLE "0:"
    INDEX 01 00:50:64
  TRACK 51 AUDIO
    TITLE "6:cjc030_06384"
    INDEX 01 00:51:01
  TRACK 52 AUDIO
    TITLE "0:"
    INDEX 01 00:53:25
  TRACK 53 AUDIO
    TITLE "3:cjc030_06385"
    INDEX 01 00:53:72
  TRACK 54 AUDIO
    TITLE "0:"
    INDEX 01 00:55:16
  TRACK 55 AUDIO
    TITLE "4:cjc030_06386"
    INDEX 01 00:55:24
  TRACK 56 AUDIO
    TITLE "0:"
    INDEX 01 00:56:55
  TRACK 57 AUDIO
    TITLE "5:cjc030_06387"
    INDEX 01 00:56:63
  TRACK 58 AUDIO
    TITLE "0:"
    INDEX 01 00:58:07
  TRACK 59 AUDIO
    TITLE "3:cjc030_06388"
    INDEX 01 00:58:62
  TRACK 60 AUDIO
    TITLE "0:"
    INDEX 01 01:00:00
  TRACK 61 AUDIO
    TITLE "4:cjc030_06389"
    INDEX 01 01:00:06
  TRACK 62 AUDIO
    TITLE "0:"
    INDEX 01 01:01:15
  TRACK 63 AUDIO
    TITLE "5:cjc030_06390"
    INDEX 01 01:01:21
  TRACK 64 AUDIO
    TITLE "0:"
    INDEX 01 01:02:38
  TRACK 65 AUDIO
    TITLE "6:cjc030_06391"
    INDEX 01 01:02:50
  TRACK 66 AUDIO
    TITLE "0:"
    INDEX 01 01:05:13
  TRACK 67 AUDIO
    TITLE "3:cjc030_06392"
    INDEX 01 01:05:64
  TRACK 68 AUDIO
    TITLE "0:"
    INDEX 01 01:07:04
  TRACK 69 AUDIO
    TITLE "4:cjc030_06393"
    INDEX 01 01:07:14
  TRACK 70 AUDIO
    TITLE "0:"
    INDEX 01 01:08:03
  TRACK 71 AUDIO
    TITLE "5:cjc030_06394"
    INDEX 01 01:08:13
  TRACK 72 AUDIO
    TITLE "0:"
    INDEX 01 01:09:28
